<mxfile host="app.diagrams.net" agent="Mozilla/5.0 (X11; Linux x86_64; rv:132.0) Gecko/20100101 Firefox/132.0" version="24.8.4">
  <diagram name="Page-1" id="c7558073-3199-34d8-9f00-42111426c3f3">
    <mxGraphModel dx="1434" dy="749" grid="0" gridSize="10" guides="1" tooltips="1" connect="1" arrows="1" fold="1" page="1" pageScale="1" pageWidth="827" pageHeight="1169" background="none" math="0" shadow="0">
      <root>
        <mxCell id="0" />
        <mxCell id="1" parent="0" />
        <mxCell id="2" value="&lt;p style=&quot;margin: 0px; margin-top: 4px; text-align: center; text-decoration: underline;&quot;&gt;&lt;strong&gt;Process 1&lt;br&gt;&lt;/strong&gt;&lt;/p&gt;&lt;hr&gt;&lt;div&gt;Submit Patient&lt;/div&gt;&lt;div&gt;Details&lt;br&gt;&lt;/div&gt;" style="verticalAlign=middle;align=center;overflow=fill;fontSize=12;fontFamily=Helvetica;html=1;rounded=1;fontStyle=1;strokeWidth=3;fillColor=#E6FFCC" parent="1" vertex="1">
          <mxGeometry x="80" y="230" width="110" height="90" as="geometry" />
        </mxCell>
        <mxCell id="3" value="Healthcare Organisation" style="whiteSpace=wrap;align=center;verticalAlign=middle;fontStyle=1;strokeWidth=3;fillColor=#FFFFCC" parent="1" vertex="1">
          <mxGeometry x="170" y="123" width="98" height="60" as="geometry" />
        </mxCell>
        <mxCell id="5" value="PRIVATE BLOCKCHAIN NETWORK" style="shape=process;whiteSpace=wrap;align=center;verticalAlign=middle;size=0.0475;fontStyle=1;strokeWidth=3;fillColor=#FFCCCC" parent="1" vertex="1">
          <mxGeometry x="80" y="390" width="630" height="50" as="geometry" />
        </mxCell>
        <mxCell id="36" value="" style="edgeStyle=orthogonalEdgeStyle;strokeColor=#990000;strokeWidth=2;exitX=0;exitY=0.5;exitDx=0;exitDy=0;" parent="1" source="3" target="2" edge="1">
          <mxGeometry width="100" height="100" relative="1" as="geometry">
            <mxPoint x="20" y="250" as="sourcePoint" />
            <mxPoint x="120" y="150" as="targetPoint" />
          </mxGeometry>
        </mxCell>
        <mxCell id="OneQrJ_-ErCCQHgOrdbo-96" value="&lt;p style=&quot;margin: 0px; margin-top: 4px; text-align: center; text-decoration: underline;&quot;&gt;&lt;strong&gt;Process 2&lt;br&gt;&lt;/strong&gt;&lt;/p&gt;&lt;hr&gt;&lt;div&gt;Submit Treatment&lt;/div&gt;&lt;div&gt;Details&lt;br&gt;&lt;/div&gt;" style="verticalAlign=middle;align=center;overflow=fill;fontSize=12;fontFamily=Helvetica;html=1;rounded=1;fontStyle=1;strokeWidth=3;fillColor=#E6FFCC" vertex="1" parent="1">
          <mxGeometry x="240" y="230" width="110" height="90" as="geometry" />
        </mxCell>
        <mxCell id="OneQrJ_-ErCCQHgOrdbo-98" value="" style="edgeStyle=orthogonalEdgeStyle;strokeColor=#990000;strokeWidth=2;entryX=0.5;entryY=0;entryDx=0;entryDy=0;exitX=1;exitY=0.5;exitDx=0;exitDy=0;" edge="1" parent="1" source="3" target="OneQrJ_-ErCCQHgOrdbo-96">
          <mxGeometry width="100" height="100" relative="1" as="geometry">
            <mxPoint x="256" y="75.5" as="sourcePoint" />
            <mxPoint x="289" y="144.5" as="targetPoint" />
          </mxGeometry>
        </mxCell>
        <mxCell id="OneQrJ_-ErCCQHgOrdbo-101" value="&lt;p style=&quot;margin: 0px; margin-top: 4px; text-align: center; text-decoration: underline;&quot;&gt;&lt;strong&gt;Process 3&lt;br&gt;&lt;/strong&gt;&lt;/p&gt;&lt;hr&gt;&lt;div&gt;Verify Patient ID&amp;nbsp;&lt;/div&gt;&lt;div&gt;&amp;amp; Treatment ID&lt;br&gt;&lt;/div&gt;" style="verticalAlign=middle;align=center;overflow=fill;fontSize=12;fontFamily=Helvetica;html=1;rounded=1;fontStyle=1;strokeWidth=3;fillColor=#E6FFCC" vertex="1" parent="1">
          <mxGeometry x="440" y="230" width="110" height="90" as="geometry" />
        </mxCell>
        <mxCell id="OneQrJ_-ErCCQHgOrdbo-102" value="TPA Organisation" style="whiteSpace=wrap;align=center;verticalAlign=middle;fontStyle=1;strokeWidth=3;fillColor=#FFFFCC" vertex="1" parent="1">
          <mxGeometry x="520.5" y="123" width="98" height="60" as="geometry" />
        </mxCell>
        <mxCell id="OneQrJ_-ErCCQHgOrdbo-103" value="" style="edgeStyle=orthogonalEdgeStyle;strokeColor=#990000;strokeWidth=2;exitX=0;exitY=0.5;exitDx=0;exitDy=0;" edge="1" parent="1" source="OneQrJ_-ErCCQHgOrdbo-102" target="OneQrJ_-ErCCQHgOrdbo-101">
          <mxGeometry width="100" height="100" relative="1" as="geometry">
            <mxPoint x="300.5" y="250" as="sourcePoint" />
            <mxPoint x="400.5" y="150" as="targetPoint" />
          </mxGeometry>
        </mxCell>
        <mxCell id="OneQrJ_-ErCCQHgOrdbo-104" value="" style="edgeStyle=orthogonalEdgeStyle;strokeColor=#990000;strokeWidth=2;entryX=0.5;entryY=0;entryDx=0;entryDy=0;exitX=1;exitY=0.5;exitDx=0;exitDy=0;" edge="1" parent="1" source="OneQrJ_-ErCCQHgOrdbo-102" target="OneQrJ_-ErCCQHgOrdbo-105">
          <mxGeometry width="100" height="100" relative="1" as="geometry">
            <mxPoint x="536.5" y="75.5" as="sourcePoint" />
            <mxPoint x="693.5" y="232" as="targetPoint" />
          </mxGeometry>
        </mxCell>
        <mxCell id="OneQrJ_-ErCCQHgOrdbo-105" value="&lt;p style=&quot;margin: 0px; margin-top: 4px; text-align: center; text-decoration: underline;&quot;&gt;&lt;strong&gt;Process 4&lt;br&gt;&lt;/strong&gt;&lt;/p&gt;&lt;hr&gt;&lt;div&gt;Submit Insurance&lt;/div&gt;&lt;div&gt;Claim Request&lt;br&gt;&lt;/div&gt;" style="verticalAlign=middle;align=center;overflow=fill;fontSize=12;fontFamily=Helvetica;html=1;rounded=1;fontStyle=1;strokeWidth=3;fillColor=#E6FFCC" vertex="1" parent="1">
          <mxGeometry x="600" y="230" width="110" height="90" as="geometry" />
        </mxCell>
        <mxCell id="OneQrJ_-ErCCQHgOrdbo-110" value="&lt;p style=&quot;margin: 0px; margin-top: 4px; text-align: center; text-decoration: underline;&quot;&gt;&lt;strong&gt;Process 5&lt;br&gt;&lt;/strong&gt;&lt;/p&gt;&lt;hr&gt;&lt;div&gt;Submit Insurance&lt;/div&gt;&lt;div&gt;Details&lt;br&gt;&lt;/div&gt;" style="verticalAlign=middle;align=center;overflow=fill;fontSize=12;fontFamily=Helvetica;html=1;rounded=1;fontStyle=1;strokeWidth=3;fillColor=#E6FFCC" vertex="1" parent="1">
          <mxGeometry x="120" y="510" width="110" height="90" as="geometry" />
        </mxCell>
        <mxCell id="OneQrJ_-ErCCQHgOrdbo-111" value="&lt;p style=&quot;margin: 0px; margin-top: 4px; text-align: center; text-decoration: underline;&quot;&gt;&lt;strong&gt;Process 6&lt;br&gt;&lt;/strong&gt;&lt;/p&gt;&lt;hr&gt;&lt;div&gt;Check Claim&lt;/div&gt;&lt;div&gt;Eligibility&lt;br&gt;&lt;/div&gt;" style="verticalAlign=middle;align=center;overflow=fill;fontSize=12;fontFamily=Helvetica;html=1;rounded=1;fontStyle=1;strokeWidth=3;fillColor=#E6FFCC" vertex="1" parent="1">
          <mxGeometry x="350" y="510" width="110" height="90" as="geometry" />
        </mxCell>
        <mxCell id="OneQrJ_-ErCCQHgOrdbo-112" value="Insurance Organisation" style="whiteSpace=wrap;align=center;verticalAlign=middle;fontStyle=1;strokeWidth=3;fillColor=#FFFFCC" vertex="1" parent="1">
          <mxGeometry x="356" y="660" width="98" height="60" as="geometry" />
        </mxCell>
        <mxCell id="OneQrJ_-ErCCQHgOrdbo-115" value="&lt;p style=&quot;margin: 0px; margin-top: 4px; text-align: center; text-decoration: underline;&quot;&gt;&lt;strong&gt;Process 7&lt;br&gt;&lt;/strong&gt;&lt;/p&gt;&lt;hr&gt;&lt;div&gt;Update Claim&lt;/div&gt;&lt;div&gt;Status&lt;br&gt;&lt;/div&gt;" style="verticalAlign=middle;align=center;overflow=fill;fontSize=12;fontFamily=Helvetica;html=1;rounded=1;fontStyle=1;strokeWidth=3;fillColor=#E6FFCC" vertex="1" parent="1">
          <mxGeometry x="570" y="510" width="110" height="90" as="geometry" />
        </mxCell>
        <mxCell id="OneQrJ_-ErCCQHgOrdbo-116" value="" style="edgeStyle=orthogonalEdgeStyle;strokeColor=#990000;strokeWidth=2;exitX=0;exitY=0.5;exitDx=0;exitDy=0;entryX=0.5;entryY=1;entryDx=0;entryDy=0;" edge="1" parent="1" source="OneQrJ_-ErCCQHgOrdbo-112" target="OneQrJ_-ErCCQHgOrdbo-110">
          <mxGeometry width="100" height="100" relative="1" as="geometry">
            <mxPoint x="206" y="660" as="sourcePoint" />
            <mxPoint x="180" y="747" as="targetPoint" />
          </mxGeometry>
        </mxCell>
        <mxCell id="OneQrJ_-ErCCQHgOrdbo-117" value="" style="edgeStyle=orthogonalEdgeStyle;strokeColor=#990000;strokeWidth=2;exitX=0.5;exitY=0;exitDx=0;exitDy=0;entryX=0.5;entryY=1;entryDx=0;entryDy=0;" edge="1" parent="1" source="OneQrJ_-ErCCQHgOrdbo-112" target="OneQrJ_-ErCCQHgOrdbo-111">
          <mxGeometry width="100" height="100" relative="1" as="geometry">
            <mxPoint x="600" y="700" as="sourcePoint" />
            <mxPoint x="574" y="787" as="targetPoint" />
          </mxGeometry>
        </mxCell>
        <mxCell id="OneQrJ_-ErCCQHgOrdbo-118" value="" style="edgeStyle=orthogonalEdgeStyle;strokeColor=#990000;strokeWidth=2;exitX=1;exitY=0.5;exitDx=0;exitDy=0;entryX=0.5;entryY=1;entryDx=0;entryDy=0;" edge="1" parent="1" source="OneQrJ_-ErCCQHgOrdbo-112" target="OneQrJ_-ErCCQHgOrdbo-115">
          <mxGeometry width="100" height="100" relative="1" as="geometry">
            <mxPoint x="570" y="670" as="sourcePoint" />
            <mxPoint x="544" y="757" as="targetPoint" />
          </mxGeometry>
        </mxCell>
        <mxCell id="OneQrJ_-ErCCQHgOrdbo-119" value="" style="edgeStyle=orthogonalEdgeStyle;strokeColor=#990000;strokeWidth=2;exitX=0.5;exitY=0;exitDx=0;exitDy=0;entryX=0.865;entryY=1.06;entryDx=0;entryDy=0;entryPerimeter=0;" edge="1" parent="1" source="OneQrJ_-ErCCQHgOrdbo-115" target="5">
          <mxGeometry width="100" height="100" relative="1" as="geometry">
            <mxPoint x="550" y="498" as="sourcePoint" />
            <mxPoint x="630" y="460" as="targetPoint" />
          </mxGeometry>
        </mxCell>
        <mxCell id="OneQrJ_-ErCCQHgOrdbo-121" value="" style="edgeStyle=orthogonalEdgeStyle;strokeColor=#990000;strokeWidth=2;exitX=0.5;exitY=0;exitDx=0;exitDy=0;entryX=0.865;entryY=1.06;entryDx=0;entryDy=0;entryPerimeter=0;" edge="1" parent="1">
          <mxGeometry width="100" height="100" relative="1" as="geometry">
            <mxPoint x="405" y="510" as="sourcePoint" />
            <mxPoint x="405" y="443" as="targetPoint" />
            <Array as="points">
              <mxPoint x="405" y="470" />
              <mxPoint x="405" y="470" />
            </Array>
          </mxGeometry>
        </mxCell>
        <mxCell id="OneQrJ_-ErCCQHgOrdbo-122" value="" style="edgeStyle=orthogonalEdgeStyle;strokeColor=#990000;strokeWidth=2;exitX=0.5;exitY=0;exitDx=0;exitDy=0;entryX=0.865;entryY=1.06;entryDx=0;entryDy=0;entryPerimeter=0;" edge="1" parent="1">
          <mxGeometry width="100" height="100" relative="1" as="geometry">
            <mxPoint x="170" y="510" as="sourcePoint" />
            <mxPoint x="170" y="443" as="targetPoint" />
            <Array as="points">
              <mxPoint x="170" y="470" />
              <mxPoint x="170" y="470" />
            </Array>
          </mxGeometry>
        </mxCell>
        <mxCell id="OneQrJ_-ErCCQHgOrdbo-126" value="" style="edgeStyle=orthogonalEdgeStyle;strokeColor=#990000;strokeWidth=2;exitX=0.5;exitY=0;exitDx=0;exitDy=0;entryX=0.865;entryY=1.06;entryDx=0;entryDy=0;entryPerimeter=0;" edge="1" parent="1">
          <mxGeometry width="100" height="100" relative="1" as="geometry">
            <mxPoint x="495" y="390" as="sourcePoint" />
            <mxPoint x="495" y="323" as="targetPoint" />
            <Array as="points">
              <mxPoint x="495" y="340" />
              <mxPoint x="495" y="340" />
            </Array>
          </mxGeometry>
        </mxCell>
        <mxCell id="OneQrJ_-ErCCQHgOrdbo-128" value="" style="strokeColor=#990000;strokeWidth=2;" edge="1" parent="1">
          <mxGeometry width="100" height="100" relative="1" as="geometry">
            <mxPoint x="640" y="440" as="sourcePoint" />
            <mxPoint x="640" y="510" as="targetPoint" />
          </mxGeometry>
        </mxCell>
        <mxCell id="OneQrJ_-ErCCQHgOrdbo-129" value="" style="strokeColor=#990000;strokeWidth=2;" edge="1" parent="1">
          <mxGeometry width="100" height="100" relative="1" as="geometry">
            <mxPoint x="510" y="320" as="sourcePoint" />
            <mxPoint x="510" y="390" as="targetPoint" />
          </mxGeometry>
        </mxCell>
        <mxCell id="OneQrJ_-ErCCQHgOrdbo-130" value="" style="strokeColor=#990000;strokeWidth=2;" edge="1" parent="1">
          <mxGeometry width="100" height="100" relative="1" as="geometry">
            <mxPoint x="420" y="440" as="sourcePoint" />
            <mxPoint x="420" y="510" as="targetPoint" />
          </mxGeometry>
        </mxCell>
        <mxCell id="OneQrJ_-ErCCQHgOrdbo-131" value="" style="strokeColor=#990000;strokeWidth=2;" edge="1" parent="1">
          <mxGeometry width="100" height="100" relative="1" as="geometry">
            <mxPoint x="134.5" y="320" as="sourcePoint" />
            <mxPoint x="134.5" y="390" as="targetPoint" />
          </mxGeometry>
        </mxCell>
        <mxCell id="OneQrJ_-ErCCQHgOrdbo-132" value="" style="strokeColor=#990000;strokeWidth=2;" edge="1" parent="1">
          <mxGeometry width="100" height="100" relative="1" as="geometry">
            <mxPoint x="294.5" y="320" as="sourcePoint" />
            <mxPoint x="294.5" y="390" as="targetPoint" />
          </mxGeometry>
        </mxCell>
        <mxCell id="OneQrJ_-ErCCQHgOrdbo-133" value="" style="strokeColor=#990000;strokeWidth=2;" edge="1" parent="1">
          <mxGeometry width="100" height="100" relative="1" as="geometry">
            <mxPoint x="654.5" y="320" as="sourcePoint" />
            <mxPoint x="654.5" y="390" as="targetPoint" />
          </mxGeometry>
        </mxCell>
        <mxCell id="OneQrJ_-ErCCQHgOrdbo-134" value="" style="strokeColor=#990000;strokeWidth=2;endArrow=none;endFill=0;" edge="1" parent="1">
          <mxGeometry width="100" height="100" relative="1" as="geometry">
            <mxPoint x="549" y="280" as="sourcePoint" />
            <mxPoint x="600" y="280" as="targetPoint" />
          </mxGeometry>
        </mxCell>
        <mxCell id="OneQrJ_-ErCCQHgOrdbo-135" value="" style="strokeColor=#990000;strokeWidth=2;endArrow=none;endFill=0;" edge="1" parent="1">
          <mxGeometry width="100" height="100" relative="1" as="geometry">
            <mxPoint x="460" y="560" as="sourcePoint" />
            <mxPoint x="570" y="560" as="targetPoint" />
          </mxGeometry>
        </mxCell>
      </root>
    </mxGraphModel>
  </diagram>
</mxfile>
